<?xml version="1.0" encoding="UTF-8"?>
<svg width="20px" height="18px" viewBox="0 0 20 18" version="1.1" xmlns="http://www.w3.org/2000/svg" xmlns:xlink="http://www.w3.org/1999/xlink">
    <!-- Generator: Sketch 63.1 (92452) - https://sketch.com -->
    <title>Shape</title>
    <desc>Created with Sketch.</desc>
    <g id="Page-1" stroke="none" stroke-width="1" fill="none" fill-rule="evenodd">
        <g id="Extended-6-Plan-Showcase---Desktop-Version---Source-Internet" transform="translate(-1309.000000, -2634.000000)" fill="#46C066" fill-rule="nonzero">
            <g id="Section-3---Plans" transform="translate(313.000000, 2197.000000)">
                <g id="Plans" transform="translate(0.000000, 233.000000)">
                    <g id="Plan-3" transform="translate(908.000000, 0.000000)">
                        <path d="M107.126607,204.137873 C106.224106,203.642754 105.217471,204.597626 104.627374,205.163475 C103.27368,206.507369 102.128198,208.063455 100.843813,209.478079 C99.4206392,211.034166 98.1015996,212.590253 96.6437139,214.111032 C95.8106363,214.959806 94.9081355,215.879312 94.3527505,216.94028 C93.1031341,215.702426 92.0270755,214.358533 90.6386129,213.262257 C89.6319775,212.484214 87.9658223,211.918364 88.0005338,213.792741 C88.069957,216.233026 90.1873625,218.850081 91.749383,220.512206 C92.4089028,221.219519 93.2766919,221.962196 94.2833273,221.997562 C95.4982322,222.068293 96.7478486,220.582938 97.4767915,219.769529 C98.7611761,218.354904 99.8025231,216.763394 100.98266,215.313462 C102.509969,213.40372 104.071989,211.529285 105.564586,209.584176 C106.501799,208.381746 109.452282,205.410977 107.126607,204.137873 Z M89.527786,213.651279 C89.4930745,213.651279 89.4583629,213.651279 89.3889398,213.686587 C89.2500935,213.651279 89.1459588,213.615855 89.0071125,213.545124 L89.0071125,213.545124 C89.1112472,213.474393 89.2848051,213.509761 89.527786,213.651279 Z" id="Shape"></path>
                    </g>
                </g>
            </g>
        </g>
    </g>
</svg>