<svg xmlns="http://www.w3.org/2000/svg" width="140" height="50" viewBox="0 0 140 50">
    <defs>
        <linearGradient id="gm15dlcwea" x1="33.262%" x2="115.101%" y1="0%" y2="207.623%">
            <stop offset="0%" stop-color="#6BF8B1"/>
            <stop offset="100%" stop-color="#0A86A5"/>
        </linearGradient>
    </defs>
    <g fill="none" fill-rule="evenodd">
        <g>
            <g>
                <g>
                    <g>
                        <path fill="#000" fill-rule="nonzero" d="M0 29.304C1.184 30.966 3.793 32 6.18 32 9.372 32 12 30.236 12 27.196c0-3.203-2.81-3.79-5.077-4.277-1.846-.406-2.83-.608-2.83-1.622 0-.932.884-1.5 2.148-1.5 1.525 0 2.709.73 3.592 1.865l2.026-2.23C10.796 18.074 8.83 17 6.341 17c-3.07 0-5.518 1.784-5.518 4.642 0 2.919 2.327 3.628 4.455 4.094 2.187.487 3.41.65 3.41 1.805 0 1.094-.982 1.662-2.367 1.662-1.545 0-3.13-.77-4.254-2.23L0 29.304zM23 26.51c0-3.286-2.064-5.51-5-5.51-2.955 0-5 2.224-5 5.51 0 3.286 2.045 5.49 5 5.49 2.936 0 5-2.204 5-5.49zm-6.989 0c0-1.843.777-2.885 1.989-2.885 1.212 0 1.989 1.042 1.989 2.885 0 1.843-.777 2.885-1.989 2.885-1.212 0-1.989-1.042-1.989-2.885zM35 21h-3.326v6.236c0 1.268-.874 1.902-1.788 1.902-1.081 0-1.56-.696-1.56-1.78V21H25v7.136C25 30.487 26.476 32 28.721 32c1.373 0 2.35-.613 2.953-1.288v1.063H35V21zM43 21.041c-.181-.02-.363-.041-.634-.041-1.106 0-2.03.623-2.466 1.494v-1.432H37V32h2.9v-5.375c0-1.578.997-2.47 2.248-2.47.326 0 .544.02.852.083V21.04zM59.225 32c2.055 0 3.934-1.062 4.697-3.086l-2.623-.861c-.293.921-1.056 1.402-2.035 1.402-1.194 0-2.035-.821-2.25-2.264H64v-.841c0-2.986-1.703-5.35-4.834-5.35C56.192 21 54 23.364 54 26.49c0 3.286 2.113 5.51 5.225 5.51zm-.098-8.515c1.155 0 1.761.801 1.781 1.743h-3.796c.313-1.162 1.056-1.743 2.015-1.743zM74 17L70 17 70 32 74 32zM75 32h3.327v-6.154c0-1.268.893-1.902 1.808-1.902 1.08 0 1.538.798 1.538 1.881V32H85v-7.115C85 22.534 83.586 21 81.34 21c-1.392 0-2.41.613-3.013 1.309v-1.084H75V32zM87.204 28.985c0 2.23 1.024 3.015 3.072 3.015.683 0 1.221-.062 1.724-.145V29.15c-.323.042-.485.062-.826.062-.719 0-1.132-.165-1.132-1.073V23.74h1.85v-2.725h-1.85V18h-2.838v3.015H86v2.725h1.204v5.245zM98.225 32c2.055 0 3.933-1.062 4.696-3.086l-2.622-.861c-.293.921-1.056 1.402-2.035 1.402-1.194 0-2.035-.821-2.25-2.264H103v-.841c0-2.986-1.703-5.35-4.833-5.35C95.192 21 93 23.364 93 26.49c0 3.286 2.114 5.51 5.225 5.51zm-.098-8.515c1.155 0 1.761.801 1.78 1.743h-3.795c.313-1.162 1.056-1.743 2.015-1.743zM110 21.041c-.181-.02-.362-.041-.634-.041-1.106 0-2.03.623-2.465 1.494v-1.432H104V32h2.9v-5.375c0-1.578.998-2.47 2.248-2.47.327 0 .544.02.852.083V21.04zM112 32h3.327v-6.154c0-1.268.893-1.902 1.808-1.902 1.082 0 1.538.798 1.538 1.881V32H122v-7.115c0-2.351-1.414-3.885-3.66-3.885-1.392 0-2.41.613-3.013 1.309v-1.084H112V32zM128.225 32c2.055 0 3.933-1.062 4.696-3.086l-2.622-.861c-.294.921-1.057 1.402-2.035 1.402-1.194 0-2.035-.821-2.25-2.264H133v-.841c0-2.986-1.703-5.35-4.833-5.35-2.975 0-5.167 2.364-5.167 5.49 0 3.286 2.113 5.51 5.225 5.51zm-.098-8.515c1.155 0 1.761.801 1.78 1.743h-3.795c.313-1.162 1.056-1.743 2.015-1.743zM135.203 28.985c0 2.23 1.025 3.015 3.073 3.015.682 0 1.221-.062 1.724-.145V29.15c-.323.042-.485.062-.826.062-.719 0-1.132-.165-1.132-1.073V23.74h1.85v-2.725h-1.85V18h-2.839v3.015H134v2.725h1.203v5.245z" transform="translate(-169 -30) translate(150 25) translate(19) translate(0 6)"/>
                        <path stroke="url(#gm15dlcwea)" stroke-width="2" d="M72.822 16.423c3.911 6.393 6.28 13.039 6.968 18.595.695 5.618-.352 9.863-2.907 11.81-2.506 1.91-6.342 1.483-10.751-1.267-4.364-2.72-9.04-7.589-12.954-13.984-3.912-6.393-6.281-13.039-6.968-18.595-.695-5.618.352-9.863 2.906-11.81 2.507-1.91 6.343-1.483 10.752 1.266 4.363 2.722 9.04 7.59 12.954 13.985z" transform="translate(-169 -30) translate(150 25) translate(19) translate(0 6)"/>
                        <path fill="#000" fill-rule="nonzero" d="M47.16 26.51c0-1.803.84-2.865 2.18-2.865 1.04 0 1.66.761 1.88 1.743l2.76-1.122C53.52 22.523 51.88 21 49.32 21 46.2 21 44 23.244 44 26.51c0 3.246 2.2 5.49 5.32 5.49 2.58 0 4.24-1.543 4.68-3.306l-2.78-1.082c-.22 1.002-.84 1.743-1.88 1.743-1.34 0-2.18-1.062-2.18-2.845zM74 17L70 17 70 32 74 32zM75 32h3.327v-6.154c0-1.268.893-1.902 1.808-1.902 1.08 0 1.538.798 1.538 1.881V32H85v-7.115C85 22.534 83.586 21 81.34 21c-1.392 0-2.41.613-3.013 1.309v-1.084H75V32zM87.204 28.985c0 2.23 1.024 3.015 3.072 3.015.683 0 1.221-.062 1.724-.145V29.15c-.323.042-.485.062-.826.062-.719 0-1.132-.165-1.132-1.073V23.74h1.85v-2.725h-1.85V18h-2.838v3.015H86v2.725h1.204v5.245zM98.225 32c2.055 0 3.933-1.062 4.696-3.086l-2.622-.861c-.293.921-1.056 1.402-2.035 1.402-1.194 0-2.035-.821-2.25-2.264H103v-.841c0-2.986-1.703-5.35-4.833-5.35C95.192 21 93 23.364 93 26.49c0 3.286 2.114 5.51 5.225 5.51zm-.098-8.515c1.155 0 1.761.801 1.78 1.743h-3.795c.313-1.162 1.056-1.743 2.015-1.743zM110 21.041c-.181-.02-.362-.041-.634-.041-1.106 0-2.03.623-2.465 1.494v-1.432H104V32h2.9v-5.375c0-1.578.998-2.47 2.248-2.47.327 0 .544.02.852.083V21.04zM112 32h3.327v-6.154c0-1.268.893-1.902 1.808-1.902 1.082 0 1.538.798 1.538 1.881V32H122v-7.115c0-2.351-1.414-3.885-3.66-3.885-1.392 0-2.41.613-3.013 1.309v-1.084H112V32zM128.225 32c2.055 0 3.933-1.062 4.696-3.086l-2.622-.861c-.294.921-1.057 1.402-2.035 1.402-1.194 0-2.035-.821-2.25-2.264H133v-.841c0-2.986-1.703-5.35-4.833-5.35-2.975 0-5.167 2.364-5.167 5.49 0 3.286 2.113 5.51 5.225 5.51zm-.098-8.515c1.155 0 1.761.801 1.78 1.743h-3.795c.313-1.162 1.056-1.743 2.015-1.743zM135.203 28.985c0 2.23 1.025 3.015 3.073 3.015.682 0 1.221-.062 1.724-.145V29.15c-.323.042-.485.062-.826.062-.719 0-1.132-.165-1.132-1.073V23.74h1.85v-2.725h-1.85V18h-2.839v3.015H134v2.725h1.203v5.245z" transform="translate(-169 -30) translate(150 25) translate(19) translate(0 6)"/>
                    </g>
                </g>
            </g>
        </g>
    </g>
</svg>
